<svg width="346" height="222" viewBox="0 0 346 222" fill="none" xmlns="http://www.w3.org/2000/svg">
<path d="M313.562 222H32.4375C14.5225 222 0 209.576 0 194.25V27.75C0 12.4239 14.5225 0 32.4375 0H313.562C331.477 0 346 12.4239 346 27.75V194.25C346 209.576 331.477 222 313.562 222ZM75.6875 32.375C54.7869 32.375 37.8438 46.8698 37.8438 64.75C37.8438 82.6302 54.7869 97.125 75.6875 97.125C96.5881 97.125 113.531 82.6302 113.531 64.75C113.531 46.8698 96.5881 32.375 75.6875 32.375ZM43.25 185H302.75V120.25L243.609 69.6554C240.442 66.9463 235.308 66.9463 232.14 69.6554L140.562 148L103.047 115.905C99.8798 113.196 94.7452 113.196 91.5778 115.905L43.25 157.25V185Z" fill="black"/>
</svg>
